<?xml version="1.0" encoding="iso-8859-1"?>
<!-- Generator: Adobe Illustrator 19.0.0, SVG Export Plug-In . SVG Version: 6.00 Build 0)  -->
<svg version="1.1" id="Layer_1" xmlns="http://www.w3.org/2000/svg" xmlns:xlink="http://www.w3.org/1999/xlink" x="0px" y="0px"
	 viewBox="0 0 512 512" style="enable-background:new 0 0 512 512;" xml:space="preserve">
<circle style="fill:#273B7A;" cx="256" cy="256" r="256"/>
<path style="fill:#121149;" d="M277.9,511.059c125.352-10.623,224.952-111.557,233.489-237.494L376.363,138.54l-17.198,17.904
	v87.099L249.091,133.468l-55.727,28.293v42.78l-58.74-58.742l-27.407,3.019l86.147,86.147v68.437l-0.574,4.313l-83.597,32.677
	L277.9,511.059z"/>
<path style="fill:#FFEDB5;" d="M334.527,220.66h25.679l20.116-66.846c2.738-9.095-3.374-18.487-12.029-18.487h-41.853
	c-8.654,0-14.765,9.392-12.029,18.487L334.527,220.66z"/>
<rect x="276.256" y="182.044" style="fill:#B54324;" width="19.911" height="59.733"/>
<rect x="121.966" y="156.444" style="fill:#FFC61B;" width="113.778" height="170.667"/>
<rect x="121.966" y="259.448" style="fill:#EAA22F;" width="113.778" height="67.663"/>
<path style="fill:#E09112;" d="M369.105,327.111H235.744v-119.16h133.363c18.48,0,33.461,14.981,33.461,33.461v52.238
	C402.566,312.13,387.586,327.111,369.105,327.111z"/>
<path style="fill:#FF5419;" d="M235.744,259.448v67.663h133.363c18.48,0,33.461-14.981,33.461-33.461v-34.202H235.744z"/>
<g>
	<path style="fill:#B54324;" d="M237.899,156.444H119.811c-7.854,0-14.222-6.368-14.222-14.222l0,0
		c0-7.854,6.368-14.222,14.222-14.222h118.088c7.854,0,14.222,6.368,14.222,14.222l0,0
		C252.121,150.076,245.753,156.444,237.899,156.444z"/>
	<path style="fill:#B54324;" d="M392.816,344.781H119.184c-7.508,0-13.595-6.087-13.595-13.595v-1.257
		c0-7.508,6.087-13.595,13.595-13.595h273.634c7.508,0,13.595,6.087,13.595,13.595v1.257
		C406.411,338.694,400.324,344.781,392.816,344.781z"/>
</g>
<circle style="fill:#FFEDB5;" cx="178.855" cy="327.111" r="56.889"/>
<circle style="fill:#EAA22F;" cx="178.855" cy="327.111" r="28.444"/>
<circle style="fill:#FFEDB5;" cx="321.077" cy="327.111" r="56.889"/>
<circle style="fill:#EAA22F;" cx="321.077" cy="327.111" r="28.444"/>
<g>
</g>
<g>
</g>
<g>
</g>
<g>
</g>
<g>
</g>
<g>
</g>
<g>
</g>
<g>
</g>
<g>
</g>
<g>
</g>
<g>
</g>
<g>
</g>
<g>
</g>
<g>
</g>
<g>
</g>
</svg>
